G04*
G04 #@! TF.GenerationSoftware,Altium Limited,Altium Designer,25.0.2 (28)*
G04*
G04 Layer_Color=16711935*
%FSLAX44Y44*%
%MOMM*%
G71*
G04*
G04 #@! TF.SameCoordinates,BCD89E3A-21B1-4274-9852-F660C0645C88*
G04*
G04*
G04 #@! TF.FilePolarity,Positive*
G04*
G01*
G75*
%ADD10C,0.2000*%
G36*
X150000Y403602D02*
X148733D01*
X147217Y408142D01*
Y408151D01*
X147208Y408169D01*
X147199Y408197D01*
X147180Y408243D01*
X147143Y408354D01*
X147097Y408493D01*
X147051Y408650D01*
X146995Y408807D01*
X146949Y408955D01*
X146912Y409085D01*
X146903Y409066D01*
X146894Y409020D01*
X146866Y408937D01*
X146829Y408826D01*
X146783Y408678D01*
X146718Y408502D01*
X146653Y408299D01*
X146570Y408059D01*
X145035Y403602D01*
X143898D01*
Y410000D01*
X144712D01*
Y404647D01*
X146579Y410000D01*
X147337D01*
X149186Y404554D01*
Y410000D01*
X150000D01*
Y403602D01*
D02*
G37*
G36*
X142382D02*
X141531D01*
Y410000D01*
X142382D01*
Y403602D01*
D02*
G37*
G36*
X552889Y418552D02*
X547887D01*
X547896Y418543D01*
X547934Y418497D01*
X547989Y418441D01*
X548054Y418349D01*
X548137Y418247D01*
X548229Y418117D01*
X548331Y417970D01*
X548433Y417803D01*
Y417794D01*
X548442Y417785D01*
X548479Y417729D01*
X548525Y417637D01*
X548581Y417526D01*
X548645Y417396D01*
X548710Y417258D01*
X548775Y417119D01*
X548830Y416980D01*
X548072D01*
Y416990D01*
X548054Y417008D01*
X548044Y417045D01*
X548017Y417091D01*
X547989Y417147D01*
X547952Y417211D01*
X547859Y417369D01*
X547758Y417553D01*
X547628Y417738D01*
X547481Y417933D01*
X547323Y418127D01*
X547314Y418136D01*
X547305Y418145D01*
X547277Y418173D01*
X547249Y418210D01*
X547157Y418293D01*
X547046Y418404D01*
X546917Y418515D01*
X546769Y418635D01*
X546621Y418737D01*
X546463Y418829D01*
Y419338D01*
X552889D01*
Y418552D01*
D02*
G37*
G36*
X550911Y415649D02*
X550966Y415630D01*
X551040Y415603D01*
X551123Y415575D01*
X551225Y415538D01*
X551336Y415492D01*
X551456Y415436D01*
X551715Y415307D01*
X551974Y415140D01*
X552103Y415039D01*
X552233Y414937D01*
X552344Y414826D01*
X552455Y414697D01*
X552464Y414687D01*
X552482Y414669D01*
X552501Y414623D01*
X552538Y414576D01*
X552584Y414502D01*
X552630Y414428D01*
X552677Y414327D01*
X552723Y414225D01*
X552778Y414105D01*
X552824Y413975D01*
X552871Y413837D01*
X552917Y413689D01*
X552954Y413532D01*
X552972Y413365D01*
X552991Y413190D01*
X553000Y413005D01*
Y412903D01*
X552991Y412829D01*
Y412746D01*
X552982Y412644D01*
X552963Y412533D01*
X552945Y412404D01*
X552898Y412136D01*
X552824Y411858D01*
X552723Y411581D01*
X552658Y411451D01*
X552584Y411322D01*
X552575Y411313D01*
X552565Y411294D01*
X552538Y411257D01*
X552501Y411220D01*
X552464Y411165D01*
X552408Y411100D01*
X552344Y411026D01*
X552270Y410952D01*
X552187Y410878D01*
X552103Y410795D01*
X551891Y410629D01*
X551641Y410471D01*
X551364Y410333D01*
X551354D01*
X551327Y410314D01*
X551280Y410305D01*
X551225Y410277D01*
X551151Y410259D01*
X551059Y410231D01*
X550957Y410194D01*
X550846Y410166D01*
X550726Y410139D01*
X550587Y410102D01*
X550300Y410055D01*
X549977Y410018D01*
X549644Y410000D01*
X549635D01*
X549598D01*
X549542D01*
X549478Y410009D01*
X549385D01*
X549293Y410018D01*
X549172Y410028D01*
X549052Y410046D01*
X548784Y410092D01*
X548488Y410157D01*
X548192Y410249D01*
X547906Y410379D01*
X547896Y410388D01*
X547869Y410397D01*
X547832Y410416D01*
X547786Y410453D01*
X547721Y410490D01*
X547647Y410536D01*
X547481Y410656D01*
X547296Y410813D01*
X547111Y410998D01*
X546926Y411211D01*
X546769Y411461D01*
X546759Y411470D01*
X546750Y411498D01*
X546732Y411535D01*
X546704Y411581D01*
X546676Y411655D01*
X546648Y411729D01*
X546611Y411821D01*
X546574Y411923D01*
X546537Y412034D01*
X546500Y412154D01*
X546445Y412413D01*
X546399Y412709D01*
X546380Y413014D01*
Y413106D01*
X546390Y413171D01*
X546399Y413254D01*
X546408Y413356D01*
X546417Y413458D01*
X546445Y413578D01*
X546500Y413828D01*
X546584Y414105D01*
X546639Y414244D01*
X546704Y414373D01*
X546787Y414502D01*
X546870Y414632D01*
X546880Y414641D01*
X546889Y414660D01*
X546917Y414697D01*
X546963Y414743D01*
X547009Y414789D01*
X547074Y414854D01*
X547148Y414919D01*
X547222Y414992D01*
X547314Y415066D01*
X547425Y415140D01*
X547536Y415224D01*
X547656Y415298D01*
X547795Y415362D01*
X547934Y415436D01*
X548081Y415492D01*
X548248Y415547D01*
X548442Y414715D01*
X548433D01*
X548414Y414706D01*
X548377Y414687D01*
X548331Y414669D01*
X548276Y414650D01*
X548202Y414623D01*
X548054Y414549D01*
X547887Y414456D01*
X547721Y414345D01*
X547564Y414207D01*
X547425Y414059D01*
X547407Y414040D01*
X547369Y413985D01*
X547323Y413892D01*
X547259Y413772D01*
X547203Y413615D01*
X547148Y413439D01*
X547111Y413227D01*
X547101Y412995D01*
Y412921D01*
X547111Y412875D01*
Y412811D01*
X547120Y412737D01*
X547148Y412561D01*
X547185Y412367D01*
X547249Y412163D01*
X547342Y411951D01*
X547462Y411757D01*
Y411747D01*
X547481Y411738D01*
X547527Y411673D01*
X547601Y411590D01*
X547712Y411488D01*
X547850Y411368D01*
X548008Y411257D01*
X548202Y411156D01*
X548414Y411063D01*
X548424D01*
X548442Y411054D01*
X548470Y411045D01*
X548516Y411035D01*
X548571Y411017D01*
X548636Y410998D01*
X548793Y410971D01*
X548978Y410934D01*
X549182Y410897D01*
X549403Y410878D01*
X549644Y410869D01*
X549653D01*
X549681D01*
X549727D01*
X549783D01*
X549847Y410878D01*
X549930D01*
X550023Y410887D01*
X550125Y410897D01*
X550347Y410924D01*
X550587Y410971D01*
X550827Y411026D01*
X551068Y411100D01*
X551077D01*
X551096Y411109D01*
X551123Y411128D01*
X551170Y411146D01*
X551280Y411202D01*
X551410Y411285D01*
X551558Y411387D01*
X551715Y411516D01*
X551854Y411664D01*
X551983Y411840D01*
Y411849D01*
X551992Y411867D01*
X552011Y411895D01*
X552029Y411932D01*
X552048Y411978D01*
X552076Y412034D01*
X552131Y412163D01*
X552187Y412330D01*
X552233Y412515D01*
X552270Y412718D01*
X552279Y412931D01*
Y412995D01*
X552270Y413051D01*
Y413116D01*
X552260Y413180D01*
X552224Y413347D01*
X552177Y413541D01*
X552103Y413735D01*
X552002Y413938D01*
X551946Y414040D01*
X551872Y414133D01*
X551863Y414142D01*
X551854Y414151D01*
X551826Y414179D01*
X551798Y414216D01*
X551752Y414253D01*
X551697Y414299D01*
X551641Y414355D01*
X551567Y414401D01*
X551484Y414456D01*
X551391Y414521D01*
X551299Y414576D01*
X551188Y414632D01*
X551068Y414678D01*
X550938Y414724D01*
X550800Y414771D01*
X550652Y414808D01*
X550864Y415658D01*
X550874D01*
X550911Y415649D01*
D02*
G37*
G36*
X302250Y403602D02*
X300983D01*
X299467Y408142D01*
Y408151D01*
X299458Y408169D01*
X299449Y408197D01*
X299430Y408243D01*
X299393Y408354D01*
X299347Y408493D01*
X299301Y408650D01*
X299245Y408807D01*
X299199Y408955D01*
X299162Y409085D01*
X299153Y409066D01*
X299144Y409020D01*
X299116Y408937D01*
X299079Y408826D01*
X299033Y408678D01*
X298968Y408502D01*
X298903Y408299D01*
X298820Y408059D01*
X297285Y403602D01*
X296148D01*
Y410000D01*
X296962D01*
Y404647D01*
X298829Y410000D01*
X299587D01*
X301437Y404554D01*
Y410000D01*
X302250D01*
Y403602D01*
D02*
G37*
G36*
X294770D02*
X292311D01*
X292145Y403611D01*
X291960Y403621D01*
X291775Y403639D01*
X291590Y403667D01*
X291433Y403695D01*
X291423D01*
X291405Y403704D01*
X291377D01*
X291340Y403722D01*
X291239Y403750D01*
X291109Y403796D01*
X290961Y403861D01*
X290804Y403944D01*
X290647Y404037D01*
X290499Y404157D01*
X290490Y404166D01*
X290480Y404175D01*
X290453Y404203D01*
X290416Y404231D01*
X290323Y404323D01*
X290212Y404453D01*
X290092Y404610D01*
X289963Y404795D01*
X289842Y405007D01*
X289741Y405248D01*
Y405257D01*
X289732Y405276D01*
X289713Y405312D01*
X289704Y405368D01*
X289676Y405433D01*
X289658Y405507D01*
X289639Y405590D01*
X289611Y405692D01*
X289584Y405793D01*
X289565Y405914D01*
X289519Y406172D01*
X289491Y406459D01*
X289482Y406773D01*
Y406783D01*
Y406801D01*
Y406847D01*
Y406894D01*
X289491Y406958D01*
Y407032D01*
X289500Y407208D01*
X289528Y407411D01*
X289556Y407624D01*
X289602Y407846D01*
X289658Y408068D01*
Y408077D01*
X289667Y408096D01*
X289676Y408123D01*
X289685Y408160D01*
X289722Y408262D01*
X289778Y408391D01*
X289833Y408539D01*
X289907Y408687D01*
X290000Y408844D01*
X290092Y408992D01*
X290101Y409011D01*
X290138Y409057D01*
X290194Y409122D01*
X290268Y409205D01*
X290351Y409297D01*
X290453Y409390D01*
X290554Y409492D01*
X290675Y409575D01*
X290693Y409584D01*
X290730Y409612D01*
X290795Y409649D01*
X290887Y409695D01*
X290998Y409750D01*
X291128Y409797D01*
X291276Y409852D01*
X291442Y409898D01*
X291460D01*
X291488Y409908D01*
X291516Y409917D01*
X291608Y409926D01*
X291738Y409945D01*
X291886Y409963D01*
X292061Y409982D01*
X292256Y409991D01*
X292468Y410000D01*
X294770D01*
Y403602D01*
D02*
G37*
G36*
X446336Y407208D02*
X448074D01*
Y406478D01*
X446336D01*
Y404739D01*
X445597D01*
Y406478D01*
X443858D01*
Y407208D01*
X445597D01*
Y408965D01*
X446336D01*
Y407208D01*
D02*
G37*
G36*
X454500Y403602D02*
X453576D01*
X451911Y408253D01*
Y408262D01*
X451902Y408280D01*
X451893Y408308D01*
X451874Y408345D01*
X451865Y408401D01*
X451847Y408456D01*
X451800Y408595D01*
X451745Y408752D01*
X451689Y408928D01*
X451578Y409297D01*
Y409288D01*
X451569Y409270D01*
X451560Y409242D01*
X451551Y409205D01*
X451523Y409103D01*
X451477Y408965D01*
X451431Y408807D01*
X451375Y408632D01*
X451310Y408447D01*
X451236Y408253D01*
X449498Y403602D01*
X448638D01*
X451144Y410000D01*
X452022D01*
X454500Y403602D01*
D02*
G37*
G36*
X644055Y33491D02*
X643186D01*
X639830Y38521D01*
Y33491D01*
X639016D01*
Y39889D01*
X639895D01*
X643242Y34869D01*
Y39889D01*
X644055D01*
Y33491D01*
D02*
G37*
G36*
X635013Y39991D02*
X635096D01*
X635198Y39982D01*
X635309Y39963D01*
X635438Y39945D01*
X635706Y39898D01*
X635984Y39825D01*
X636261Y39723D01*
X636390Y39658D01*
X636520Y39584D01*
X636529Y39575D01*
X636548Y39566D01*
X636585Y39538D01*
X636622Y39501D01*
X636677Y39464D01*
X636742Y39408D01*
X636816Y39344D01*
X636890Y39270D01*
X636964Y39186D01*
X637047Y39103D01*
X637213Y38891D01*
X637370Y38641D01*
X637509Y38364D01*
Y38354D01*
X637528Y38327D01*
X637537Y38280D01*
X637565Y38225D01*
X637583Y38151D01*
X637611Y38059D01*
X637648Y37957D01*
X637676Y37846D01*
X637703Y37726D01*
X637740Y37587D01*
X637787Y37300D01*
X637823Y36977D01*
X637842Y36644D01*
Y36635D01*
Y36598D01*
Y36542D01*
X637833Y36477D01*
Y36385D01*
X637823Y36293D01*
X637814Y36172D01*
X637796Y36052D01*
X637750Y35784D01*
X637685Y35488D01*
X637592Y35192D01*
X637463Y34906D01*
X637454Y34897D01*
X637444Y34869D01*
X637426Y34832D01*
X637389Y34786D01*
X637352Y34721D01*
X637306Y34647D01*
X637186Y34481D01*
X637028Y34296D01*
X636843Y34111D01*
X636631Y33926D01*
X636381Y33769D01*
X636372Y33759D01*
X636344Y33750D01*
X636307Y33732D01*
X636261Y33704D01*
X636187Y33676D01*
X636113Y33648D01*
X636021Y33611D01*
X635919Y33574D01*
X635808Y33537D01*
X635688Y33500D01*
X635429Y33445D01*
X635133Y33399D01*
X634828Y33380D01*
X634735D01*
X634671Y33389D01*
X634588Y33399D01*
X634486Y33408D01*
X634384Y33417D01*
X634264Y33445D01*
X634014Y33500D01*
X633737Y33584D01*
X633598Y33639D01*
X633469Y33704D01*
X633339Y33787D01*
X633210Y33870D01*
X633201Y33879D01*
X633182Y33889D01*
X633145Y33916D01*
X633099Y33963D01*
X633053Y34009D01*
X632988Y34074D01*
X632923Y34148D01*
X632849Y34222D01*
X632775Y34314D01*
X632701Y34425D01*
X632618Y34536D01*
X632544Y34656D01*
X632480Y34795D01*
X632406Y34934D01*
X632350Y35082D01*
X632295Y35248D01*
X633127Y35442D01*
Y35433D01*
X633136Y35414D01*
X633154Y35377D01*
X633173Y35331D01*
X633191Y35276D01*
X633219Y35202D01*
X633293Y35054D01*
X633386Y34887D01*
X633497Y34721D01*
X633635Y34564D01*
X633783Y34425D01*
X633802Y34406D01*
X633857Y34370D01*
X633950Y34323D01*
X634070Y34259D01*
X634227Y34203D01*
X634403Y34148D01*
X634615Y34111D01*
X634846Y34101D01*
X634920D01*
X634967Y34111D01*
X635031D01*
X635105Y34120D01*
X635281Y34148D01*
X635475Y34185D01*
X635679Y34249D01*
X635891Y34342D01*
X636085Y34462D01*
X636095D01*
X636104Y34481D01*
X636169Y34527D01*
X636252Y34601D01*
X636353Y34712D01*
X636474Y34850D01*
X636585Y35008D01*
X636686Y35202D01*
X636779Y35414D01*
Y35424D01*
X636788Y35442D01*
X636797Y35470D01*
X636806Y35516D01*
X636825Y35571D01*
X636843Y35636D01*
X636871Y35793D01*
X636908Y35978D01*
X636945Y36182D01*
X636964Y36404D01*
X636973Y36644D01*
Y36653D01*
Y36681D01*
Y36727D01*
Y36783D01*
X636964Y36847D01*
Y36931D01*
X636954Y37023D01*
X636945Y37125D01*
X636917Y37347D01*
X636871Y37587D01*
X636816Y37827D01*
X636742Y38068D01*
Y38077D01*
X636733Y38096D01*
X636714Y38123D01*
X636696Y38170D01*
X636640Y38280D01*
X636557Y38410D01*
X636455Y38558D01*
X636326Y38715D01*
X636178Y38854D01*
X636002Y38983D01*
X635993D01*
X635974Y38992D01*
X635947Y39011D01*
X635910Y39029D01*
X635863Y39048D01*
X635808Y39076D01*
X635679Y39131D01*
X635512Y39186D01*
X635327Y39233D01*
X635124Y39270D01*
X634911Y39279D01*
X634846D01*
X634791Y39270D01*
X634726D01*
X634661Y39260D01*
X634495Y39223D01*
X634301Y39177D01*
X634107Y39103D01*
X633903Y39002D01*
X633802Y38946D01*
X633709Y38872D01*
X633700Y38863D01*
X633691Y38854D01*
X633663Y38826D01*
X633626Y38798D01*
X633589Y38752D01*
X633543Y38696D01*
X633487Y38641D01*
X633441Y38567D01*
X633386Y38484D01*
X633321Y38391D01*
X633265Y38299D01*
X633210Y38188D01*
X633164Y38068D01*
X633117Y37938D01*
X633071Y37800D01*
X633034Y37652D01*
X632184Y37864D01*
Y37874D01*
X632193Y37911D01*
X632211Y37966D01*
X632239Y38040D01*
X632267Y38123D01*
X632304Y38225D01*
X632350Y38336D01*
X632406Y38456D01*
X632535Y38715D01*
X632701Y38974D01*
X632803Y39103D01*
X632905Y39233D01*
X633016Y39344D01*
X633145Y39455D01*
X633154Y39464D01*
X633173Y39482D01*
X633219Y39501D01*
X633265Y39538D01*
X633339Y39584D01*
X633413Y39630D01*
X633515Y39676D01*
X633617Y39723D01*
X633737Y39778D01*
X633866Y39825D01*
X634005Y39871D01*
X634153Y39917D01*
X634310Y39954D01*
X634477Y39972D01*
X634652Y39991D01*
X634837Y40000D01*
X634939D01*
X635013Y39991D01*
D02*
G37*
G36*
X650000Y33491D02*
X645368D01*
Y34249D01*
X649149D01*
Y36200D01*
X645608D01*
Y36958D01*
X649149D01*
Y39131D01*
X645220D01*
Y39889D01*
X650000D01*
Y33491D01*
D02*
G37*
G36*
X628652D02*
X626193D01*
X626026Y33500D01*
X625841Y33510D01*
X625656Y33528D01*
X625471Y33556D01*
X625314Y33584D01*
X625305D01*
X625286Y33593D01*
X625259D01*
X625222Y33611D01*
X625120Y33639D01*
X624991Y33685D01*
X624843Y33750D01*
X624686Y33833D01*
X624528Y33926D01*
X624380Y34046D01*
X624371Y34055D01*
X624362Y34064D01*
X624334Y34092D01*
X624297Y34120D01*
X624205Y34212D01*
X624094Y34342D01*
X623974Y34499D01*
X623844Y34684D01*
X623724Y34897D01*
X623622Y35137D01*
Y35146D01*
X623613Y35165D01*
X623595Y35202D01*
X623585Y35257D01*
X623558Y35322D01*
X623539Y35396D01*
X623521Y35479D01*
X623493Y35581D01*
X623465Y35682D01*
X623447Y35803D01*
X623400Y36061D01*
X623373Y36348D01*
X623363Y36662D01*
Y36672D01*
Y36690D01*
Y36736D01*
Y36783D01*
X623373Y36847D01*
Y36921D01*
X623382Y37097D01*
X623410Y37300D01*
X623437Y37513D01*
X623484Y37735D01*
X623539Y37957D01*
Y37966D01*
X623548Y37985D01*
X623558Y38012D01*
X623567Y38049D01*
X623604Y38151D01*
X623659Y38280D01*
X623715Y38428D01*
X623789Y38576D01*
X623881Y38733D01*
X623974Y38881D01*
X623983Y38900D01*
X624020Y38946D01*
X624075Y39011D01*
X624149Y39094D01*
X624232Y39186D01*
X624334Y39279D01*
X624436Y39381D01*
X624556Y39464D01*
X624575Y39473D01*
X624612Y39501D01*
X624676Y39538D01*
X624769Y39584D01*
X624880Y39639D01*
X625009Y39686D01*
X625157Y39741D01*
X625323Y39787D01*
X625342D01*
X625370Y39797D01*
X625397Y39806D01*
X625490Y39815D01*
X625619Y39834D01*
X625767Y39852D01*
X625943Y39871D01*
X626137Y39880D01*
X626350Y39889D01*
X628652D01*
Y33491D01*
D02*
G37*
G36*
X504055D02*
X503186D01*
X499830Y38521D01*
Y33491D01*
X499016D01*
Y39889D01*
X499895D01*
X503242Y34869D01*
Y39889D01*
X504055D01*
Y33491D01*
D02*
G37*
G36*
X495013Y39991D02*
X495096D01*
X495198Y39982D01*
X495309Y39963D01*
X495438Y39945D01*
X495706Y39898D01*
X495984Y39825D01*
X496261Y39723D01*
X496390Y39658D01*
X496520Y39584D01*
X496529Y39575D01*
X496548Y39566D01*
X496585Y39538D01*
X496622Y39501D01*
X496677Y39464D01*
X496742Y39408D01*
X496816Y39344D01*
X496890Y39270D01*
X496964Y39186D01*
X497047Y39103D01*
X497213Y38891D01*
X497371Y38641D01*
X497509Y38364D01*
Y38354D01*
X497528Y38327D01*
X497537Y38280D01*
X497565Y38225D01*
X497583Y38151D01*
X497611Y38059D01*
X497648Y37957D01*
X497676Y37846D01*
X497703Y37726D01*
X497740Y37587D01*
X497787Y37300D01*
X497824Y36977D01*
X497842Y36644D01*
Y36635D01*
Y36598D01*
Y36542D01*
X497833Y36477D01*
Y36385D01*
X497824Y36293D01*
X497814Y36172D01*
X497796Y36052D01*
X497750Y35784D01*
X497685Y35488D01*
X497593Y35192D01*
X497463Y34906D01*
X497454Y34897D01*
X497444Y34869D01*
X497426Y34832D01*
X497389Y34786D01*
X497352Y34721D01*
X497306Y34647D01*
X497186Y34481D01*
X497029Y34296D01*
X496844Y34111D01*
X496631Y33926D01*
X496381Y33769D01*
X496372Y33759D01*
X496344Y33750D01*
X496307Y33732D01*
X496261Y33704D01*
X496187Y33676D01*
X496113Y33648D01*
X496021Y33611D01*
X495919Y33574D01*
X495808Y33537D01*
X495688Y33500D01*
X495429Y33445D01*
X495133Y33399D01*
X494828Y33380D01*
X494736D01*
X494671Y33389D01*
X494588Y33399D01*
X494486Y33408D01*
X494384Y33417D01*
X494264Y33445D01*
X494014Y33500D01*
X493737Y33584D01*
X493598Y33639D01*
X493469Y33704D01*
X493340Y33787D01*
X493210Y33870D01*
X493201Y33879D01*
X493182Y33889D01*
X493145Y33916D01*
X493099Y33963D01*
X493053Y34009D01*
X492988Y34074D01*
X492923Y34148D01*
X492850Y34222D01*
X492775Y34314D01*
X492702Y34425D01*
X492618Y34536D01*
X492544Y34656D01*
X492480Y34795D01*
X492406Y34934D01*
X492350Y35082D01*
X492295Y35248D01*
X493127Y35442D01*
Y35433D01*
X493136Y35414D01*
X493155Y35377D01*
X493173Y35331D01*
X493192Y35276D01*
X493219Y35202D01*
X493293Y35054D01*
X493386Y34887D01*
X493497Y34721D01*
X493635Y34564D01*
X493783Y34425D01*
X493802Y34406D01*
X493857Y34370D01*
X493950Y34323D01*
X494070Y34259D01*
X494227Y34203D01*
X494403Y34148D01*
X494615Y34111D01*
X494846Y34101D01*
X494921D01*
X494967Y34111D01*
X495031D01*
X495105Y34120D01*
X495281Y34148D01*
X495475Y34185D01*
X495679Y34249D01*
X495891Y34342D01*
X496085Y34462D01*
X496095D01*
X496104Y34481D01*
X496169Y34527D01*
X496252Y34601D01*
X496354Y34712D01*
X496474Y34850D01*
X496585Y35008D01*
X496686Y35202D01*
X496779Y35414D01*
Y35424D01*
X496788Y35442D01*
X496797Y35470D01*
X496807Y35516D01*
X496825Y35571D01*
X496844Y35636D01*
X496871Y35793D01*
X496908Y35978D01*
X496945Y36182D01*
X496964Y36404D01*
X496973Y36644D01*
Y36653D01*
Y36681D01*
Y36727D01*
Y36783D01*
X496964Y36847D01*
Y36931D01*
X496954Y37023D01*
X496945Y37125D01*
X496917Y37347D01*
X496871Y37587D01*
X496816Y37827D01*
X496742Y38068D01*
Y38077D01*
X496733Y38096D01*
X496714Y38123D01*
X496696Y38170D01*
X496640Y38280D01*
X496557Y38410D01*
X496455Y38558D01*
X496326Y38715D01*
X496178Y38854D01*
X496002Y38983D01*
X495993D01*
X495975Y38992D01*
X495947Y39011D01*
X495910Y39029D01*
X495863Y39048D01*
X495808Y39076D01*
X495679Y39131D01*
X495512Y39186D01*
X495327Y39233D01*
X495124Y39270D01*
X494911Y39279D01*
X494846D01*
X494791Y39270D01*
X494726D01*
X494662Y39260D01*
X494495Y39223D01*
X494301Y39177D01*
X494107Y39103D01*
X493904Y39002D01*
X493802Y38946D01*
X493709Y38872D01*
X493700Y38863D01*
X493691Y38854D01*
X493663Y38826D01*
X493626Y38798D01*
X493589Y38752D01*
X493543Y38696D01*
X493487Y38641D01*
X493441Y38567D01*
X493386Y38484D01*
X493321Y38391D01*
X493265Y38299D01*
X493210Y38188D01*
X493164Y38068D01*
X493118Y37938D01*
X493071Y37800D01*
X493034Y37652D01*
X492184Y37864D01*
Y37874D01*
X492193Y37911D01*
X492211Y37966D01*
X492239Y38040D01*
X492267Y38123D01*
X492304Y38225D01*
X492350Y38336D01*
X492406Y38456D01*
X492535Y38715D01*
X492702Y38974D01*
X492803Y39103D01*
X492905Y39233D01*
X493016Y39344D01*
X493145Y39455D01*
X493155Y39464D01*
X493173Y39482D01*
X493219Y39501D01*
X493265Y39538D01*
X493340Y39584D01*
X493414Y39630D01*
X493515Y39676D01*
X493617Y39723D01*
X493737Y39778D01*
X493867Y39825D01*
X494005Y39871D01*
X494153Y39917D01*
X494310Y39954D01*
X494477Y39972D01*
X494652Y39991D01*
X494837Y40000D01*
X494939D01*
X495013Y39991D01*
D02*
G37*
G36*
X510000Y33491D02*
X505368D01*
Y34249D01*
X509150D01*
Y36200D01*
X505608D01*
Y36958D01*
X509150D01*
Y39131D01*
X505220D01*
Y39889D01*
X510000D01*
Y33491D01*
D02*
G37*
G36*
X488513D02*
X487663D01*
Y39889D01*
X488513D01*
Y33491D01*
D02*
G37*
G36*
X393915Y44506D02*
X394100Y44497D01*
X394285Y44479D01*
X394469Y44451D01*
X394627Y44423D01*
X394636D01*
X394654Y44414D01*
X394682D01*
X394719Y44395D01*
X394821Y44368D01*
X394950Y44321D01*
X395098Y44257D01*
X395255Y44173D01*
X395412Y44081D01*
X395560Y43961D01*
X395570Y43952D01*
X395579Y43942D01*
X395607Y43914D01*
X395644Y43887D01*
X395736Y43794D01*
X395847Y43665D01*
X395967Y43508D01*
X396097Y43323D01*
X396217Y43110D01*
X396319Y42870D01*
Y42860D01*
X396328Y42842D01*
X396346Y42805D01*
X396356Y42750D01*
X396383Y42685D01*
X396402Y42611D01*
X396420Y42528D01*
X396448Y42426D01*
X396476Y42324D01*
X396494Y42204D01*
X396540Y41945D01*
X396568Y41659D01*
X396577Y41344D01*
Y41335D01*
Y41316D01*
Y41270D01*
Y41224D01*
X396568Y41159D01*
Y41085D01*
X396559Y40910D01*
X396531Y40706D01*
X396503Y40494D01*
X396457Y40272D01*
X396402Y40050D01*
Y40041D01*
X396393Y40022D01*
X396383Y39994D01*
X396374Y39957D01*
X396337Y39856D01*
X396282Y39726D01*
X396226Y39578D01*
X396152Y39430D01*
X396060Y39273D01*
X395967Y39125D01*
X395958Y39107D01*
X395921Y39061D01*
X395866Y38996D01*
X395792Y38913D01*
X395708Y38820D01*
X395607Y38728D01*
X395505Y38626D01*
X395385Y38543D01*
X395366Y38534D01*
X395329Y38506D01*
X395265Y38469D01*
X395172Y38423D01*
X395061Y38367D01*
X394932Y38321D01*
X394784Y38266D01*
X394617Y38219D01*
X394599D01*
X394571Y38210D01*
X394543Y38201D01*
X394451Y38191D01*
X394321Y38173D01*
X394174Y38154D01*
X393998Y38136D01*
X393804Y38127D01*
X393591Y38118D01*
X391289D01*
Y44516D01*
X393748D01*
X393915Y44506D01*
D02*
G37*
G36*
X385399D02*
X385483D01*
X385677Y44497D01*
X385880Y44469D01*
X386102Y44441D01*
X386306Y44395D01*
X386407Y44368D01*
X386490Y44340D01*
X386500D01*
X386509Y44331D01*
X386564Y44303D01*
X386648Y44266D01*
X386749Y44201D01*
X386860Y44118D01*
X386980Y44007D01*
X387091Y43878D01*
X387202Y43730D01*
Y43720D01*
X387212Y43711D01*
X387249Y43656D01*
X387285Y43563D01*
X387341Y43443D01*
X387387Y43304D01*
X387434Y43138D01*
X387461Y42962D01*
X387470Y42768D01*
Y42759D01*
Y42740D01*
Y42703D01*
X387461Y42657D01*
Y42592D01*
X387452Y42528D01*
X387415Y42371D01*
X387360Y42186D01*
X387285Y41992D01*
X387175Y41797D01*
X387101Y41705D01*
X387027Y41612D01*
X387017Y41603D01*
X387008Y41594D01*
X386980Y41566D01*
X386943Y41538D01*
X386897Y41501D01*
X386842Y41465D01*
X386768Y41418D01*
X386694Y41363D01*
X386601Y41316D01*
X386500Y41270D01*
X386389Y41215D01*
X386269Y41169D01*
X386130Y41132D01*
X385991Y41085D01*
X385834Y41058D01*
X385668Y41030D01*
X385686Y41021D01*
X385723Y41002D01*
X385779Y40965D01*
X385853Y40928D01*
X386019Y40827D01*
X386102Y40762D01*
X386176Y40706D01*
X386195Y40688D01*
X386241Y40642D01*
X386315Y40568D01*
X386407Y40475D01*
X386509Y40346D01*
X386629Y40207D01*
X386749Y40041D01*
X386879Y39856D01*
X387979Y38118D01*
X386925D01*
X386084Y39449D01*
Y39458D01*
X386065Y39477D01*
X386047Y39504D01*
X386019Y39541D01*
X385954Y39643D01*
X385871Y39773D01*
X385769Y39911D01*
X385668Y40059D01*
X385566Y40198D01*
X385473Y40327D01*
X385464Y40336D01*
X385436Y40374D01*
X385390Y40429D01*
X385326Y40494D01*
X385187Y40632D01*
X385113Y40697D01*
X385039Y40753D01*
X385030Y40762D01*
X385011Y40771D01*
X384974Y40789D01*
X384919Y40817D01*
X384863Y40845D01*
X384799Y40873D01*
X384650Y40919D01*
X384641D01*
X384623Y40928D01*
X384586D01*
X384540Y40938D01*
X384475Y40947D01*
X384401D01*
X384299Y40956D01*
X383208D01*
Y38118D01*
X382358D01*
Y44516D01*
X385326D01*
X385399Y44506D01*
D02*
G37*
G36*
X380851Y38118D02*
X380000D01*
Y44516D01*
X380851D01*
Y38118D01*
D02*
G37*
G36*
X274210Y44728D02*
X274294Y44719D01*
X274395Y44710D01*
X274497Y44700D01*
X274617Y44673D01*
X274867Y44617D01*
X275144Y44534D01*
X275283Y44479D01*
X275412Y44414D01*
X275542Y44331D01*
X275671Y44247D01*
X275681Y44238D01*
X275699Y44229D01*
X275736Y44201D01*
X275782Y44155D01*
X275828Y44109D01*
X275893Y44044D01*
X275958Y43970D01*
X276032Y43896D01*
X276106Y43804D01*
X276180Y43693D01*
X276263Y43582D01*
X276337Y43461D01*
X276402Y43323D01*
X276476Y43184D01*
X276531Y43036D01*
X276587Y42870D01*
X275755Y42676D01*
Y42685D01*
X275745Y42703D01*
X275727Y42740D01*
X275708Y42787D01*
X275690Y42842D01*
X275662Y42916D01*
X275588Y43064D01*
X275496Y43230D01*
X275385Y43397D01*
X275246Y43554D01*
X275098Y43693D01*
X275080Y43711D01*
X275024Y43748D01*
X274932Y43794D01*
X274811Y43859D01*
X274654Y43914D01*
X274479Y43970D01*
X274266Y44007D01*
X274035Y44016D01*
X273961D01*
X273915Y44007D01*
X273850D01*
X273776Y43998D01*
X273600Y43970D01*
X273406Y43933D01*
X273203Y43868D01*
X272990Y43776D01*
X272796Y43656D01*
X272787D01*
X272777Y43637D01*
X272713Y43591D01*
X272630Y43517D01*
X272528Y43406D01*
X272408Y43267D01*
X272297Y43110D01*
X272195Y42916D01*
X272103Y42703D01*
Y42694D01*
X272093Y42676D01*
X272084Y42648D01*
X272075Y42602D01*
X272056Y42546D01*
X272038Y42481D01*
X272010Y42324D01*
X271973Y42139D01*
X271936Y41936D01*
X271918Y41714D01*
X271908Y41474D01*
Y41465D01*
Y41437D01*
Y41391D01*
Y41335D01*
X271918Y41270D01*
Y41187D01*
X271927Y41095D01*
X271936Y40993D01*
X271964Y40771D01*
X272010Y40531D01*
X272066Y40290D01*
X272139Y40050D01*
Y40041D01*
X272149Y40022D01*
X272167Y39994D01*
X272186Y39948D01*
X272241Y39837D01*
X272324Y39708D01*
X272426Y39560D01*
X272556Y39403D01*
X272703Y39264D01*
X272879Y39135D01*
X272888D01*
X272907Y39125D01*
X272935Y39107D01*
X272972Y39088D01*
X273018Y39070D01*
X273073Y39042D01*
X273203Y38987D01*
X273369Y38931D01*
X273554Y38885D01*
X273757Y38848D01*
X273970Y38839D01*
X274035D01*
X274090Y38848D01*
X274155D01*
X274220Y38857D01*
X274386Y38894D01*
X274580Y38940D01*
X274774Y39014D01*
X274978Y39116D01*
X275080Y39172D01*
X275172Y39246D01*
X275181Y39255D01*
X275191Y39264D01*
X275218Y39292D01*
X275255Y39320D01*
X275292Y39366D01*
X275338Y39421D01*
X275394Y39477D01*
X275440Y39551D01*
X275496Y39634D01*
X275560Y39726D01*
X275616Y39819D01*
X275671Y39930D01*
X275718Y40050D01*
X275764Y40179D01*
X275810Y40318D01*
X275847Y40466D01*
X276698Y40253D01*
Y40244D01*
X276688Y40207D01*
X276670Y40152D01*
X276642Y40078D01*
X276614Y39994D01*
X276577Y39893D01*
X276531Y39782D01*
X276476Y39662D01*
X276346Y39403D01*
X276180Y39144D01*
X276078Y39014D01*
X275976Y38885D01*
X275865Y38774D01*
X275736Y38663D01*
X275727Y38654D01*
X275708Y38635D01*
X275662Y38617D01*
X275616Y38580D01*
X275542Y38534D01*
X275468Y38487D01*
X275366Y38441D01*
X275264Y38395D01*
X275144Y38339D01*
X275015Y38293D01*
X274876Y38247D01*
X274728Y38201D01*
X274571Y38164D01*
X274405Y38145D01*
X274229Y38127D01*
X274044Y38118D01*
X273942D01*
X273868Y38127D01*
X273785D01*
X273683Y38136D01*
X273573Y38154D01*
X273443Y38173D01*
X273175Y38219D01*
X272898Y38293D01*
X272620Y38395D01*
X272491Y38460D01*
X272361Y38534D01*
X272352Y38543D01*
X272334Y38552D01*
X272297Y38580D01*
X272260Y38617D01*
X272204Y38654D01*
X272139Y38709D01*
X272066Y38774D01*
X271992Y38848D01*
X271918Y38931D01*
X271834Y39014D01*
X271668Y39227D01*
X271511Y39477D01*
X271372Y39754D01*
Y39763D01*
X271354Y39791D01*
X271344Y39837D01*
X271317Y39893D01*
X271298Y39967D01*
X271270Y40059D01*
X271233Y40161D01*
X271206Y40272D01*
X271178Y40392D01*
X271141Y40531D01*
X271095Y40817D01*
X271058Y41141D01*
X271039Y41474D01*
Y41483D01*
Y41520D01*
Y41575D01*
X271049Y41640D01*
Y41733D01*
X271058Y41825D01*
X271067Y41945D01*
X271085Y42065D01*
X271132Y42333D01*
X271196Y42629D01*
X271289Y42925D01*
X271418Y43212D01*
X271427Y43221D01*
X271437Y43249D01*
X271455Y43286D01*
X271492Y43332D01*
X271529Y43397D01*
X271576Y43471D01*
X271696Y43637D01*
X271853Y43822D01*
X272038Y44007D01*
X272250Y44192D01*
X272500Y44349D01*
X272509Y44358D01*
X272537Y44368D01*
X272574Y44386D01*
X272620Y44414D01*
X272694Y44441D01*
X272768Y44469D01*
X272861Y44506D01*
X272962Y44543D01*
X273073Y44580D01*
X273193Y44617D01*
X273452Y44673D01*
X273748Y44719D01*
X274053Y44737D01*
X274146D01*
X274210Y44728D01*
D02*
G37*
G36*
X265399Y44617D02*
X265483D01*
X265677Y44608D01*
X265880Y44580D01*
X266102Y44552D01*
X266306Y44506D01*
X266407Y44479D01*
X266490Y44451D01*
X266500D01*
X266509Y44441D01*
X266564Y44414D01*
X266648Y44377D01*
X266749Y44312D01*
X266860Y44229D01*
X266980Y44118D01*
X267091Y43988D01*
X267202Y43841D01*
Y43831D01*
X267212Y43822D01*
X267248Y43767D01*
X267285Y43674D01*
X267341Y43554D01*
X267387Y43415D01*
X267433Y43249D01*
X267461Y43073D01*
X267470Y42879D01*
Y42870D01*
Y42851D01*
Y42814D01*
X267461Y42768D01*
Y42703D01*
X267452Y42639D01*
X267415Y42481D01*
X267360Y42297D01*
X267285Y42102D01*
X267175Y41908D01*
X267101Y41816D01*
X267027Y41723D01*
X267017Y41714D01*
X267008Y41705D01*
X266980Y41677D01*
X266943Y41649D01*
X266897Y41612D01*
X266842Y41575D01*
X266768Y41529D01*
X266694Y41474D01*
X266601Y41427D01*
X266500Y41381D01*
X266389Y41326D01*
X266269Y41280D01*
X266130Y41243D01*
X265991Y41196D01*
X265834Y41169D01*
X265667Y41141D01*
X265686Y41132D01*
X265723Y41113D01*
X265779Y41076D01*
X265853Y41039D01*
X266019Y40938D01*
X266102Y40873D01*
X266176Y40817D01*
X266194Y40799D01*
X266241Y40753D01*
X266315Y40679D01*
X266407Y40586D01*
X266509Y40457D01*
X266629Y40318D01*
X266749Y40152D01*
X266879Y39967D01*
X267979Y38228D01*
X266925D01*
X266084Y39560D01*
Y39569D01*
X266065Y39588D01*
X266047Y39615D01*
X266019Y39652D01*
X265954Y39754D01*
X265871Y39883D01*
X265769Y40022D01*
X265667Y40170D01*
X265566Y40309D01*
X265473Y40438D01*
X265464Y40447D01*
X265436Y40484D01*
X265390Y40540D01*
X265326Y40605D01*
X265187Y40743D01*
X265113Y40808D01*
X265039Y40863D01*
X265030Y40873D01*
X265011Y40882D01*
X264974Y40901D01*
X264919Y40928D01*
X264863Y40956D01*
X264799Y40984D01*
X264650Y41030D01*
X264641D01*
X264623Y41039D01*
X264586D01*
X264540Y41048D01*
X264475Y41058D01*
X264401D01*
X264299Y41067D01*
X263208D01*
Y38228D01*
X262358D01*
Y44626D01*
X265326D01*
X265399Y44617D01*
D02*
G37*
G36*
X260851Y38228D02*
X260000D01*
Y44626D01*
X260851D01*
Y38228D01*
D02*
G37*
G36*
X152278Y38118D02*
X151428D01*
Y44516D01*
X152278D01*
Y38118D01*
D02*
G37*
G36*
X145399Y44506D02*
X145483D01*
X145677Y44497D01*
X145880Y44469D01*
X146102Y44441D01*
X146306Y44395D01*
X146407Y44368D01*
X146490Y44340D01*
X146500D01*
X146509Y44331D01*
X146564Y44303D01*
X146648Y44266D01*
X146749Y44201D01*
X146860Y44118D01*
X146980Y44007D01*
X147091Y43878D01*
X147202Y43730D01*
Y43720D01*
X147212Y43711D01*
X147248Y43656D01*
X147285Y43563D01*
X147341Y43443D01*
X147387Y43304D01*
X147434Y43138D01*
X147461Y42962D01*
X147470Y42768D01*
Y42759D01*
Y42740D01*
Y42703D01*
X147461Y42657D01*
Y42592D01*
X147452Y42528D01*
X147415Y42371D01*
X147360Y42186D01*
X147285Y41992D01*
X147175Y41797D01*
X147101Y41705D01*
X147027Y41612D01*
X147017Y41603D01*
X147008Y41594D01*
X146980Y41566D01*
X146943Y41538D01*
X146897Y41501D01*
X146842Y41465D01*
X146768Y41418D01*
X146694Y41363D01*
X146601Y41316D01*
X146500Y41270D01*
X146389Y41215D01*
X146269Y41169D01*
X146130Y41132D01*
X145991Y41085D01*
X145834Y41058D01*
X145668Y41030D01*
X145686Y41021D01*
X145723Y41002D01*
X145779Y40965D01*
X145852Y40928D01*
X146019Y40827D01*
X146102Y40762D01*
X146176Y40706D01*
X146195Y40688D01*
X146241Y40642D01*
X146315Y40568D01*
X146407Y40475D01*
X146509Y40346D01*
X146629Y40207D01*
X146749Y40041D01*
X146879Y39856D01*
X147979Y38118D01*
X146925D01*
X146084Y39449D01*
Y39458D01*
X146065Y39477D01*
X146047Y39504D01*
X146019Y39541D01*
X145954Y39643D01*
X145871Y39773D01*
X145769Y39911D01*
X145668Y40059D01*
X145566Y40198D01*
X145473Y40327D01*
X145464Y40336D01*
X145436Y40374D01*
X145390Y40429D01*
X145325Y40494D01*
X145187Y40632D01*
X145113Y40697D01*
X145039Y40753D01*
X145030Y40762D01*
X145011Y40771D01*
X144974Y40789D01*
X144919Y40817D01*
X144863Y40845D01*
X144798Y40873D01*
X144650Y40919D01*
X144641D01*
X144623Y40928D01*
X144586D01*
X144540Y40938D01*
X144475Y40947D01*
X144401D01*
X144299Y40956D01*
X143208D01*
Y38118D01*
X142358D01*
Y44516D01*
X145325D01*
X145399Y44506D01*
D02*
G37*
G36*
X140851Y38118D02*
X140000D01*
Y44516D01*
X140851D01*
Y38118D01*
D02*
G37*
%LPC*%
G36*
X293920Y409242D02*
X292404D01*
X292339Y409233D01*
X292200Y409223D01*
X292043Y409214D01*
X291877Y409196D01*
X291710Y409168D01*
X291571Y409131D01*
X291553Y409122D01*
X291507Y409113D01*
X291442Y409085D01*
X291359Y409048D01*
X291266Y408992D01*
X291174Y408937D01*
X291081Y408872D01*
X290989Y408798D01*
X290980Y408780D01*
X290943Y408743D01*
X290887Y408678D01*
X290823Y408586D01*
X290749Y408465D01*
X290665Y408327D01*
X290591Y408169D01*
X290527Y407994D01*
Y407985D01*
X290517Y407966D01*
X290508Y407938D01*
X290499Y407901D01*
X290490Y407855D01*
X290471Y407790D01*
X290453Y407726D01*
X290434Y407652D01*
X290406Y407467D01*
X290379Y407254D01*
X290360Y407014D01*
X290351Y406755D01*
Y406746D01*
Y406709D01*
Y406662D01*
X290360Y406588D01*
Y406505D01*
X290369Y406413D01*
X290379Y406302D01*
X290388Y406191D01*
X290434Y405941D01*
X290490Y405682D01*
X290573Y405442D01*
X290628Y405322D01*
X290684Y405220D01*
Y405211D01*
X290702Y405192D01*
X290721Y405165D01*
X290739Y405128D01*
X290813Y405035D01*
X290906Y404924D01*
X291026Y404804D01*
X291165Y404684D01*
X291322Y404582D01*
X291488Y404499D01*
X291507Y404490D01*
X291553Y404480D01*
X291636Y404453D01*
X291756Y404425D01*
X291904Y404407D01*
X292089Y404379D01*
X292200Y404370D01*
X292320D01*
X292440Y404360D01*
X293920D01*
Y409242D01*
D02*
G37*
G36*
X627801Y39131D02*
X626285D01*
X626220Y39122D01*
X626082Y39113D01*
X625924Y39103D01*
X625758Y39085D01*
X625592Y39057D01*
X625453Y39020D01*
X625434Y39011D01*
X625388Y39002D01*
X625323Y38974D01*
X625240Y38937D01*
X625148Y38881D01*
X625055Y38826D01*
X624963Y38761D01*
X624870Y38687D01*
X624861Y38669D01*
X624824Y38632D01*
X624769Y38567D01*
X624704Y38475D01*
X624630Y38354D01*
X624547Y38216D01*
X624473Y38059D01*
X624408Y37883D01*
Y37874D01*
X624399Y37855D01*
X624390Y37827D01*
X624380Y37790D01*
X624371Y37744D01*
X624353Y37680D01*
X624334Y37615D01*
X624316Y37541D01*
X624288Y37356D01*
X624260Y37143D01*
X624242Y36903D01*
X624232Y36644D01*
Y36635D01*
Y36598D01*
Y36551D01*
X624242Y36477D01*
Y36394D01*
X624251Y36302D01*
X624260Y36191D01*
X624269Y36080D01*
X624316Y35830D01*
X624371Y35571D01*
X624454Y35331D01*
X624510Y35211D01*
X624565Y35109D01*
Y35100D01*
X624584Y35082D01*
X624602Y35054D01*
X624621Y35017D01*
X624695Y34924D01*
X624787Y34813D01*
X624907Y34693D01*
X625046Y34573D01*
X625203Y34471D01*
X625370Y34388D01*
X625388Y34379D01*
X625434Y34370D01*
X625518Y34342D01*
X625638Y34314D01*
X625786Y34296D01*
X625971Y34268D01*
X626082Y34259D01*
X626202D01*
X626322Y34249D01*
X627801D01*
Y39131D01*
D02*
G37*
G36*
X393619Y43757D02*
X392140D01*
Y38876D01*
X393656D01*
X393721Y38885D01*
X393859Y38894D01*
X394016Y38903D01*
X394183Y38922D01*
X394349Y38950D01*
X394488Y38987D01*
X394506Y38996D01*
X394553Y39005D01*
X394617Y39033D01*
X394701Y39070D01*
X394793Y39125D01*
X394885Y39181D01*
X394978Y39246D01*
X395070Y39320D01*
X395080Y39338D01*
X395117Y39375D01*
X395172Y39440D01*
X395237Y39532D01*
X395311Y39652D01*
X395394Y39791D01*
X395468Y39948D01*
X395533Y40124D01*
Y40133D01*
X395542Y40152D01*
X395551Y40179D01*
X395560Y40216D01*
X395570Y40262D01*
X395588Y40327D01*
X395607Y40392D01*
X395625Y40466D01*
X395653Y40651D01*
X395681Y40863D01*
X395699Y41104D01*
X395708Y41363D01*
Y41372D01*
Y41409D01*
Y41455D01*
X395699Y41529D01*
Y41612D01*
X395690Y41705D01*
X395681Y41816D01*
X395671Y41927D01*
X395625Y42176D01*
X395570Y42435D01*
X395486Y42676D01*
X395431Y42796D01*
X395375Y42898D01*
Y42907D01*
X395357Y42925D01*
X395339Y42953D01*
X395320Y42990D01*
X395246Y43082D01*
X395154Y43193D01*
X395033Y43314D01*
X394895Y43434D01*
X394738Y43535D01*
X394571Y43619D01*
X394553Y43628D01*
X394506Y43637D01*
X394423Y43665D01*
X394303Y43693D01*
X394155Y43711D01*
X393970Y43739D01*
X393859Y43748D01*
X393739D01*
X393619Y43757D01*
D02*
G37*
G36*
X385224Y43804D02*
X383208D01*
Y41686D01*
X385113D01*
X385224Y41696D01*
X385353Y41705D01*
X385501Y41714D01*
X385649Y41733D01*
X385797Y41760D01*
X385926Y41797D01*
X385945Y41807D01*
X385982Y41825D01*
X386037Y41853D01*
X386111Y41890D01*
X386195Y41945D01*
X386278Y42010D01*
X386361Y42093D01*
X386426Y42186D01*
X386435Y42195D01*
X386453Y42232D01*
X386481Y42287D01*
X386518Y42361D01*
X386546Y42445D01*
X386574Y42537D01*
X386592Y42648D01*
X386601Y42759D01*
Y42768D01*
Y42777D01*
X386592Y42833D01*
X386583Y42916D01*
X386564Y43027D01*
X386518Y43138D01*
X386463Y43267D01*
X386380Y43387D01*
X386269Y43508D01*
X386250Y43517D01*
X386204Y43554D01*
X386130Y43600D01*
X386010Y43656D01*
X385871Y43711D01*
X385686Y43757D01*
X385473Y43794D01*
X385224Y43804D01*
D02*
G37*
G36*
X265224Y43914D02*
X263208D01*
Y41797D01*
X265113D01*
X265224Y41807D01*
X265353Y41816D01*
X265501Y41825D01*
X265649Y41844D01*
X265797Y41871D01*
X265926Y41908D01*
X265945Y41918D01*
X265982Y41936D01*
X266037Y41964D01*
X266111Y42001D01*
X266194Y42056D01*
X266278Y42121D01*
X266361Y42204D01*
X266426Y42297D01*
X266435Y42306D01*
X266453Y42343D01*
X266481Y42398D01*
X266518Y42472D01*
X266546Y42555D01*
X266574Y42648D01*
X266592Y42759D01*
X266601Y42870D01*
Y42879D01*
Y42888D01*
X266592Y42944D01*
X266583Y43027D01*
X266564Y43138D01*
X266518Y43249D01*
X266463Y43378D01*
X266380Y43499D01*
X266269Y43619D01*
X266250Y43628D01*
X266204Y43665D01*
X266130Y43711D01*
X266010Y43767D01*
X265871Y43822D01*
X265686Y43868D01*
X265473Y43905D01*
X265224Y43914D01*
D02*
G37*
G36*
X145224Y43804D02*
X143208D01*
Y41686D01*
X145113D01*
X145224Y41696D01*
X145353Y41705D01*
X145501Y41714D01*
X145649Y41733D01*
X145797Y41760D01*
X145926Y41797D01*
X145945Y41807D01*
X145982Y41825D01*
X146037Y41853D01*
X146111Y41890D01*
X146195Y41945D01*
X146278Y42010D01*
X146361Y42093D01*
X146426Y42186D01*
X146435Y42195D01*
X146453Y42232D01*
X146481Y42287D01*
X146518Y42361D01*
X146546Y42445D01*
X146574Y42537D01*
X146592Y42648D01*
X146601Y42759D01*
Y42768D01*
Y42777D01*
X146592Y42833D01*
X146583Y42916D01*
X146564Y43027D01*
X146518Y43138D01*
X146463Y43267D01*
X146379Y43387D01*
X146269Y43508D01*
X146250Y43517D01*
X146204Y43554D01*
X146130Y43600D01*
X146010Y43656D01*
X145871Y43711D01*
X145686Y43757D01*
X145473Y43794D01*
X145224Y43804D01*
D02*
G37*
%LPD*%
D10*
X112000Y380250D02*
X188000D01*
X112000D02*
Y439750D01*
X188000D01*
Y380250D02*
Y439750D01*
X264250Y380250D02*
X340250D01*
X264250D02*
Y439750D01*
X340250D01*
Y380250D02*
Y439750D01*
X416500Y380250D02*
X492500D01*
X416500D02*
Y439750D01*
X492500D01*
Y380250D02*
Y439750D01*
X713000Y10250D02*
Y69750D01*
X587000D02*
X713000D01*
X587000Y10250D02*
Y69750D01*
Y10250D02*
X713000D01*
X573000D02*
Y69750D01*
X447000D02*
X573000D01*
X447000Y10250D02*
Y69750D01*
Y10250D02*
X573000D01*
X329500D02*
Y69750D01*
Y10250D02*
X430500D01*
Y69750D01*
X329500D02*
X430500D01*
X209500Y10250D02*
Y69750D01*
Y10250D02*
X310500D01*
Y69750D01*
X209500D02*
X310500D01*
X89500Y10250D02*
Y69750D01*
Y10250D02*
X190500D01*
Y69750D01*
X89500D02*
X190500D01*
M02*
