G04*
G04 #@! TF.GenerationSoftware,Altium Limited,Altium Designer,25.0.2 (28)*
G04*
G04 Layer_Physical_Order=1*
G04 Layer_Color=255*
%FSLAX44Y44*%
%MOMM*%
G71*
G04*
G04 #@! TF.SameCoordinates,BCD89E3A-21B1-4274-9852-F660C0645C88*
G04*
G04*
G04 #@! TF.FilePolarity,Positive*
G04*
G01*
G75*
%ADD14C,0.2540*%
%ADD16R,1.5500X1.5500*%
%ADD17C,1.5500*%
%ADD20C,1.2000*%
%ADD21R,1.2000X1.2000*%
%ADD23R,1.4000X1.4000*%
%ADD24C,1.4000*%
%ADD25C,1.9800*%
%ADD26R,1.8000X1.8000*%
%ADD27C,1.8000*%
%ADD28C,5.0000*%
D14*
X530800Y309050D02*
X683200D01*
X696910Y195760D02*
Y295340D01*
X442000Y404750D02*
X453560Y393190D01*
X499263D01*
X424388Y317000D02*
X530800Y210588D01*
X132880Y322080D02*
X426492D01*
X464922Y283650D01*
X174417Y317000D02*
X424388D01*
X162800Y305383D02*
X174417Y317000D01*
X162800Y301200D02*
Y305383D01*
X464922Y283650D02*
X530800D01*
Y309050D02*
X553000Y331250D01*
Y400000D01*
X683200Y309050D02*
X696910Y295340D01*
X683200Y182050D02*
X696910Y195760D01*
X553000Y420000D02*
X591639D01*
X706000Y154050D02*
Y305639D01*
X591639Y420000D02*
X706000Y305639D01*
X683200Y131250D02*
X706000Y154050D01*
X264400Y300600D02*
X382950Y182050D01*
X264400Y300600D02*
Y301200D01*
X382950Y182050D02*
X530800D01*
X239800Y301200D02*
X368000Y173000D01*
X239000Y301200D02*
X239800D01*
X514450Y173000D02*
X530800Y156650D01*
X368000Y173000D02*
X514450D01*
X272600Y166000D02*
X421000D01*
X455750Y131250D01*
X112000Y301200D02*
X132880Y322080D01*
X530800Y207450D02*
Y210588D01*
X137400Y301200D02*
X272600Y166000D01*
X455750Y131250D02*
X530800D01*
X669490Y117540D02*
X683200Y131250D01*
X448060Y117540D02*
X669490D01*
X416800Y148800D02*
X448060Y117540D01*
X511690Y34440D02*
X522500Y45250D01*
X415810Y34440D02*
X511690D01*
X405000Y45250D02*
X415810Y34440D01*
X499263Y393190D02*
X506073Y400000D01*
X553000D01*
X467000Y404750D02*
X482250Y420000D01*
X553000D01*
X676690Y34440D02*
X687500Y45250D01*
X558310Y34440D02*
X676690D01*
X547500Y45250D02*
X558310Y34440D01*
X115000Y45250D02*
X125810Y34440D01*
X176991D01*
X187801Y45250D01*
X235000D01*
X245810Y34440D02*
X292135D01*
X235000Y45250D02*
X245810Y34440D01*
X302945Y45250D02*
X355000D01*
X292135Y34440D02*
X302945Y45250D01*
X355000D02*
X364712D01*
X375522Y56060D01*
X536690D01*
X547500Y45250D01*
X340600Y148800D02*
X355000Y134400D01*
Y45250D02*
Y134400D01*
X260000Y45250D02*
Y48351D01*
X162800Y145551D02*
X260000Y48351D01*
X162800Y145551D02*
Y148800D01*
X138700Y46550D02*
Y147500D01*
Y46550D02*
X140000Y45250D01*
X137400Y148800D02*
X138700Y147500D01*
D16*
X162500Y404750D02*
D03*
X314750D02*
D03*
X467000D02*
D03*
D17*
X137500D02*
D03*
X289750D02*
D03*
X442000D02*
D03*
D20*
X553000Y420000D02*
D03*
D21*
Y400000D02*
D03*
D23*
X612500Y45250D02*
D03*
X472500D02*
D03*
X355000D02*
D03*
X235000D02*
D03*
X115000D02*
D03*
D24*
X637500D02*
D03*
X662500D02*
D03*
X687500D02*
D03*
X497500D02*
D03*
X522500D02*
D03*
X547500D02*
D03*
X405000D02*
D03*
X380000D02*
D03*
X285000D02*
D03*
X260000D02*
D03*
X165000D02*
D03*
X140000D02*
D03*
D25*
X530800Y309050D02*
D03*
Y283650D02*
D03*
Y258250D02*
D03*
Y232850D02*
D03*
Y207450D02*
D03*
Y182050D02*
D03*
Y156650D02*
D03*
Y131250D02*
D03*
X683200D02*
D03*
Y156650D02*
D03*
Y182050D02*
D03*
Y207450D02*
D03*
Y232850D02*
D03*
Y258250D02*
D03*
Y283650D02*
D03*
Y309050D02*
D03*
D26*
X416800Y301200D02*
D03*
D27*
X391400D02*
D03*
X366000D02*
D03*
X340600D02*
D03*
X315200D02*
D03*
X289800D02*
D03*
X264400D02*
D03*
X239000D02*
D03*
X213600D02*
D03*
X188200D02*
D03*
X162800D02*
D03*
X137400D02*
D03*
X112000D02*
D03*
X86600D02*
D03*
X61200D02*
D03*
Y148800D02*
D03*
X86600D02*
D03*
X112000D02*
D03*
X137400D02*
D03*
X162800D02*
D03*
X188200D02*
D03*
X213600D02*
D03*
X239000D02*
D03*
X264400D02*
D03*
X289800D02*
D03*
X315200D02*
D03*
X340600D02*
D03*
X366000D02*
D03*
X391400D02*
D03*
X416800D02*
D03*
D28*
X40000Y40000D02*
D03*
X760000D02*
D03*
Y410000D02*
D03*
X40000D02*
D03*
M02*
