G04*
G04 #@! TF.GenerationSoftware,Altium Limited,Altium Designer,25.0.2 (28)*
G04*
G04 Layer_Color=32768*
%FSLAX44Y44*%
%MOMM*%
G71*
G04*
G04 #@! TF.SameCoordinates,BCD89E3A-21B1-4274-9852-F660C0645C88*
G04*
G04*
G04 #@! TF.FilePolarity,Positive*
G04*
G01*
G75*
%ADD10C,0.2000*%
%ADD29C,0.0500*%
D10*
X553000Y381500D02*
G03*
X553000Y438500I0J28500D01*
G01*
D02*
G03*
X553000Y381500I0J-28500D01*
G01*
X112000Y380250D02*
X188000D01*
X112000D02*
Y439750D01*
X188000D01*
Y380250D02*
Y439750D01*
X264250Y380250D02*
X340250D01*
X264250D02*
Y439750D01*
X340250D01*
Y380250D02*
Y439750D01*
X416500Y380250D02*
X492500D01*
X416500D02*
Y439750D01*
X492500D01*
Y380250D02*
Y439750D01*
X713000Y10250D02*
Y69750D01*
X587000D02*
X713000D01*
X587000Y10250D02*
Y69750D01*
Y10250D02*
X713000D01*
X573000D02*
Y69750D01*
X447000D02*
X573000D01*
X447000Y10250D02*
Y69750D01*
Y10250D02*
X573000D01*
X329500D02*
Y69750D01*
Y10250D02*
X430500D01*
Y69750D01*
X329500D02*
X430500D01*
X209500Y10250D02*
Y69750D01*
Y10250D02*
X310500D01*
Y69750D01*
X209500D02*
X310500D01*
X89500Y10250D02*
Y69750D01*
Y10250D02*
X190500D01*
Y69750D01*
X89500D02*
X190500D01*
D29*
X502900Y116050D02*
X711100D01*
X502900D02*
Y324250D01*
X711100D01*
Y116050D02*
Y324250D01*
X2500Y317500D02*
X457500D01*
X2500Y132500D02*
Y317500D01*
Y132500D02*
X457500D01*
Y317500D01*
M02*
