M48
;Layer_Color=9474304
;FILE_FORMAT=4:2
METRIC,LZ
;TYPE=PLATED
T01F00S00C0.70
T02F00S00C0.90
T03F00S00C1.00
T04F00S00C1.32
T05F00S00C3.00
%
T01
X00553Y004
Y0042
T02
X00115Y000453
X0014
X00165
X00235
X0026
X00285
X00355
X0038
X00405
X004725
X004975
X005225
X005475
X006125
X006375
X006625
X006875
X004168Y001488
X003914
X00366
X003406
X003152
X002898
X002644
X00239
X002136
X001882
X001628
X001374
X00112
Y003012
X001374
X001628
X001882
X002136
X00239
X002644
X002898
X003152
X003406
X00366
X003914
X004168
X000866
X000612
Y001488
X000866
T03
X001375Y004047
X001625
X002898
X003148
X00442
X00467
T04
X005308Y001312
Y001566
Y00182
Y002075
Y002328
Y002583
Y002836
Y003091
X006832
Y002836
Y002583
Y002328
Y002075
Y00182
Y001566
Y001312
T05
X0004Y0004
X0076
Y0041
X0004
M30
