G04*
G04 #@! TF.GenerationSoftware,Altium Limited,Altium Designer,25.0.2 (28)*
G04*
G04 Layer_Color=16711935*
%FSLAX44Y44*%
%MOMM*%
G71*
G04*
G04 #@! TF.SameCoordinates,BCD89E3A-21B1-4274-9852-F660C0645C88*
G04*
G04*
G04 #@! TF.FilePolarity,Positive*
G04*
G01*
G75*
%ADD10C,0.2000*%
%ADD12C,0.1500*%
%ADD13C,0.1270*%
D10*
X684200Y112868D02*
G03*
X684200Y112868I-1000J0D01*
G01*
X417800Y322500D02*
G03*
X417800Y322500I-1000J0D01*
G01*
X113000Y381250D02*
X187000D01*
X113000D02*
Y438750D01*
X187000D01*
Y381250D02*
Y438750D01*
X265250Y381250D02*
X339250D01*
X265250D02*
Y438750D01*
X339250D01*
Y381250D02*
Y438750D01*
X417500Y381250D02*
X491500D01*
X417500D02*
Y438750D01*
X491500D01*
Y381250D02*
Y438750D01*
X712000Y11250D02*
Y68750D01*
X588000D02*
X712000D01*
X588000Y11250D02*
Y68750D01*
Y11250D02*
X712000D01*
X572000D02*
Y68750D01*
X448000D02*
X572000D01*
X448000Y11250D02*
Y68750D01*
Y11250D02*
X572000D01*
X330500D02*
Y68750D01*
Y11250D02*
X429500D01*
Y68750D01*
X330500D02*
X429500D01*
X210500Y11250D02*
Y68750D01*
Y11250D02*
X309500D01*
Y68750D01*
X210500D02*
X309500D01*
X90500Y11250D02*
Y68750D01*
Y11250D02*
X189500D01*
Y68750D01*
X90500D02*
X189500D01*
D12*
X580500Y410000D02*
G03*
X580500Y410000I-27500J0D01*
G01*
D13*
X505400Y118550D02*
X708600D01*
X505400D02*
Y321750D01*
X708600D01*
Y118550D02*
Y321750D01*
X455000Y135000D02*
Y315000D01*
X23000Y135000D02*
X455000D01*
X23000D02*
Y190000D01*
Y260000D01*
Y315000D01*
X455000D01*
X5000Y260000D02*
X23000D01*
X5000Y190000D02*
Y260000D01*
Y190000D02*
X23000D01*
M02*
