G04*
G04 #@! TF.GenerationSoftware,Altium Limited,Altium Designer,25.0.2 (28)*
G04*
G04 Layer_Color=8388736*
%FSLAX44Y44*%
%MOMM*%
G71*
G04*
G04 #@! TF.SameCoordinates,BCD89E3A-21B1-4274-9852-F660C0645C88*
G04*
G04*
G04 #@! TF.FilePolarity,Negative*
G04*
G01*
G75*
%ADD15C,2.1832*%
%ADD16R,1.5500X1.5500*%
%ADD17C,1.5500*%
%ADD18R,2.0032X2.0032*%
%ADD19C,2.0032*%
%ADD20C,1.2000*%
%ADD21R,1.2000X1.2000*%
%ADD22C,5.2032*%
%ADD23R,1.4000X1.4000*%
%ADD24C,1.4000*%
D15*
X530800Y309050D02*
D03*
Y283650D02*
D03*
Y258250D02*
D03*
Y232850D02*
D03*
Y207450D02*
D03*
Y182050D02*
D03*
Y156650D02*
D03*
Y131250D02*
D03*
X683200D02*
D03*
Y156650D02*
D03*
Y182050D02*
D03*
Y207450D02*
D03*
Y232850D02*
D03*
Y258250D02*
D03*
Y283650D02*
D03*
Y309050D02*
D03*
D16*
X162500Y404750D02*
D03*
X314750D02*
D03*
X467000D02*
D03*
D17*
X137500D02*
D03*
X289750D02*
D03*
X442000D02*
D03*
D18*
X416800Y301200D02*
D03*
D19*
X391400D02*
D03*
X366000D02*
D03*
X340600D02*
D03*
X315200D02*
D03*
X289800D02*
D03*
X264400D02*
D03*
X239000D02*
D03*
X213600D02*
D03*
X188200D02*
D03*
X162800D02*
D03*
X137400D02*
D03*
X112000D02*
D03*
X86600D02*
D03*
X61200D02*
D03*
Y148800D02*
D03*
X86600D02*
D03*
X112000D02*
D03*
X137400D02*
D03*
X162800D02*
D03*
X188200D02*
D03*
X213600D02*
D03*
X239000D02*
D03*
X264400D02*
D03*
X289800D02*
D03*
X315200D02*
D03*
X340600D02*
D03*
X366000D02*
D03*
X391400D02*
D03*
X416800D02*
D03*
D20*
X553000Y420000D02*
D03*
D21*
Y400000D02*
D03*
D22*
X40000Y40000D02*
D03*
X760000D02*
D03*
Y410000D02*
D03*
X40000D02*
D03*
D23*
X612500Y45250D02*
D03*
X472500D02*
D03*
X355000D02*
D03*
X235000D02*
D03*
X115000D02*
D03*
D24*
X637500D02*
D03*
X662500D02*
D03*
X687500D02*
D03*
X497500D02*
D03*
X522500D02*
D03*
X547500D02*
D03*
X405000D02*
D03*
X380000D02*
D03*
X285000D02*
D03*
X260000D02*
D03*
X165000D02*
D03*
X140000D02*
D03*
M02*
