G04*
G04 #@! TF.GenerationSoftware,Altium Limited,Altium Designer,25.0.2 (28)*
G04*
G04 Layer_Color=65535*
%FSLAX44Y44*%
%MOMM*%
G71*
G04*
G04 #@! TF.SameCoordinates,BCD89E3A-21B1-4274-9852-F660C0645C88*
G04*
G04*
G04 #@! TF.FilePolarity,Positive*
G04*
G01*
G75*
%ADD10C,0.2000*%
%ADD11C,0.2500*%
%ADD12C,0.1500*%
%ADD13C,0.1270*%
%ADD14C,0.2540*%
D10*
X684200Y112868D02*
G03*
X684200Y112868I-1000J0D01*
G01*
X417800Y322500D02*
G03*
X417800Y322500I-1000J0D01*
G01*
X113000Y381250D02*
X187000D01*
X113000D02*
Y438750D01*
X187000D01*
Y381250D02*
Y438750D01*
X538000Y388500D02*
X568000D01*
X265250Y381250D02*
X339250D01*
X265250D02*
Y438750D01*
X339250D01*
Y381250D02*
Y438750D01*
X417500Y381250D02*
X491500D01*
X417500D02*
Y438750D01*
X491500D01*
Y381250D02*
Y438750D01*
X712000Y11250D02*
Y68750D01*
X588000D02*
X712000D01*
X588000Y11250D02*
Y68750D01*
Y11250D02*
X712000D01*
X572000D02*
Y68750D01*
X448000D02*
X572000D01*
X448000Y11250D02*
Y68750D01*
Y11250D02*
X572000D01*
X330500D02*
Y68750D01*
Y11250D02*
X429500D01*
Y68750D01*
X330500D02*
X429500D01*
X210500Y11250D02*
Y68750D01*
Y11250D02*
X309500D01*
Y68750D01*
X210500D02*
X309500D01*
X90500Y11250D02*
Y68750D01*
Y11250D02*
X189500D01*
Y68750D01*
X90500D02*
X189500D01*
D11*
X195000Y404750D02*
G03*
X195000Y404750I-1250J0D01*
G01*
X347250D02*
G03*
X347250Y404750I-1250J0D01*
G01*
X499500D02*
G03*
X499500Y404750I-1250J0D01*
G01*
X583750Y45250D02*
G03*
X583750Y45250I-1250J0D01*
G01*
X443750D02*
G03*
X443750Y45250I-1250J0D01*
G01*
X326500Y45750D02*
G03*
X326500Y45750I-1250J0D01*
G01*
X206500D02*
G03*
X206500Y45750I-1250J0D01*
G01*
X86500D02*
G03*
X86500Y45750I-1250J0D01*
G01*
D12*
X580500Y410000D02*
G03*
X580500Y410000I-27500J0D01*
G01*
D13*
X505400Y321750D02*
X518100D01*
X695900D02*
X708600D01*
X505400Y118550D02*
X518100D01*
X695900D02*
X708600D01*
X542000D02*
X672000D01*
X542000Y321750D02*
X672000D01*
X505400Y118550D02*
Y321750D01*
X708600Y118550D02*
Y321750D01*
X455000Y135000D02*
Y315000D01*
X23000Y135000D02*
X455000D01*
X23000D02*
Y315000D01*
X455000D01*
D14*
X733540Y309505D02*
Y317503D01*
X737539Y321502D01*
X741537Y317503D01*
Y309505D01*
Y315504D01*
X733540D01*
X753533Y321502D02*
Y309505D01*
X747535D01*
X745536Y311505D01*
Y315504D01*
X747535Y317503D01*
X753533D01*
X757532D02*
Y309505D01*
Y313504D01*
X759532Y315504D01*
X761531Y317503D01*
X763530D01*
X769528Y309505D02*
X773527D01*
X771528D01*
Y317503D01*
X769528D01*
X733540Y301010D02*
X737539D01*
X735539D01*
Y289014D01*
X733540D01*
X737539D01*
X743537D02*
X751534D01*
X743537Y297012D02*
X751534D01*
X747535Y301010D02*
Y293013D01*
X757532Y297012D02*
X761531D01*
X763530Y295012D01*
Y289014D01*
X757532D01*
X755533Y291013D01*
X757532Y293013D01*
X763530D01*
X767529Y289014D02*
Y301010D01*
Y293013D02*
X773527Y297012D01*
X767529Y293013D02*
X773527Y289014D01*
X779525D02*
X783524D01*
X781525D01*
Y297012D01*
X779525D01*
X733540Y268523D02*
Y280519D01*
X737539Y276520D01*
X741537Y280519D01*
Y268523D01*
X747535Y276520D02*
X751534D01*
X753533Y274521D01*
Y268523D01*
X747535D01*
X745536Y270522D01*
X747535Y272521D01*
X753533D01*
X757532Y268523D02*
Y276520D01*
X763530D01*
X765530Y274521D01*
Y268523D01*
X769528Y276520D02*
Y270522D01*
X771528Y268523D01*
X777526D01*
Y276520D01*
X733540Y248031D02*
Y260028D01*
X739538D01*
X741537Y258028D01*
Y254029D01*
X739538Y252030D01*
X733540D01*
X747535Y256029D02*
X751534D01*
X753533Y254029D01*
Y248031D01*
X747535D01*
X745536Y250031D01*
X747535Y252030D01*
X753533D01*
X757532Y260028D02*
Y248031D01*
X763530D01*
X765530Y250031D01*
Y252030D01*
Y254029D01*
X763530Y256029D01*
X757532D01*
X769528Y248031D02*
X773527D01*
X771528D01*
Y260028D01*
X769528D01*
X781525Y248031D02*
X785523D01*
X787523Y250031D01*
Y254029D01*
X785523Y256029D01*
X781525D01*
X779525Y254029D01*
Y250031D01*
X781525Y248031D01*
X741537Y227540D02*
X733540D01*
X741537Y235537D01*
Y237537D01*
X739538Y239536D01*
X735539D01*
X733540Y237537D01*
X745536D02*
X747535Y239536D01*
X751534D01*
X753533Y237537D01*
Y229539D01*
X751534Y227540D01*
X747535D01*
X745536Y229539D01*
Y237537D01*
X765530Y227540D02*
X757532D01*
X765530Y235537D01*
Y237537D01*
X763530Y239536D01*
X759532D01*
X757532Y237537D01*
X777526Y239536D02*
X769528D01*
Y233538D01*
X773527Y235537D01*
X775526D01*
X777526Y233538D01*
Y229539D01*
X775526Y227540D01*
X771528D01*
X769528Y229539D01*
X680304Y350617D02*
Y337922D01*
X682843Y335382D01*
X687922D01*
X690461Y337922D01*
Y350617D01*
X705696Y335382D02*
X695539D01*
X705696Y345539D01*
Y348078D01*
X703157Y350617D01*
X698078D01*
X695539Y348078D01*
X8843Y340617D02*
Y327922D01*
X11382Y325382D01*
X16461D01*
X19000Y327922D01*
Y340617D01*
X24078Y325382D02*
X29157D01*
X26618D01*
Y340617D01*
X24078Y338078D01*
X592807Y93695D02*
X582650D01*
Y78460D01*
X592807D01*
X582650Y86077D02*
X587728D01*
X597885Y78460D02*
Y93695D01*
X608042Y78460D01*
Y93695D01*
X623277Y91156D02*
X620738Y93695D01*
X615659D01*
X613120Y91156D01*
Y80999D01*
X615659Y78460D01*
X620738D01*
X623277Y80999D01*
X643590Y93695D02*
Y78460D01*
X651208D01*
X653747Y80999D01*
Y91156D01*
X651208Y93695D01*
X643590D01*
X452599D02*
X442442D01*
Y78460D01*
X452599D01*
X442442Y86077D02*
X447520D01*
X457677Y78460D02*
Y93695D01*
X467834Y78460D01*
Y93695D01*
X483069Y91156D02*
X480530Y93695D01*
X475451D01*
X472912Y91156D01*
Y80999D01*
X475451Y78460D01*
X480530D01*
X483069Y80999D01*
X503382Y93695D02*
X508461D01*
X505922D01*
Y78460D01*
X503382D01*
X508461D01*
X325348Y93695D02*
X330426D01*
X327887D01*
Y78460D01*
X325348D01*
X330426D01*
X338044D02*
Y93695D01*
X345661D01*
X348201Y91156D01*
Y86077D01*
X345661Y83538D01*
X338044D01*
X343122D02*
X348201Y78460D01*
X368514Y93695D02*
Y78460D01*
X376132D01*
X378671Y80999D01*
Y91156D01*
X376132Y93695D01*
X368514D01*
X205206D02*
X210284D01*
X207745D01*
Y78460D01*
X205206D01*
X210284D01*
X217902D02*
Y93695D01*
X225519D01*
X228059Y91156D01*
Y86077D01*
X225519Y83538D01*
X217902D01*
X222980D02*
X228059Y78460D01*
X258529Y91156D02*
X255990Y93695D01*
X250911D01*
X248372Y91156D01*
Y80999D01*
X250911Y78460D01*
X255990D01*
X258529Y80999D01*
X85318Y93695D02*
X90396D01*
X87857D01*
Y78460D01*
X85318D01*
X90396D01*
X98014D02*
Y93695D01*
X105631D01*
X108171Y91156D01*
Y86077D01*
X105631Y83538D01*
X98014D01*
X103092D02*
X108171Y78460D01*
X128484Y93695D02*
X133562D01*
X131023D01*
Y78460D01*
X128484D01*
X133562D01*
X113512Y356336D02*
Y371571D01*
X118590Y366493D01*
X123669Y371571D01*
Y356336D01*
X128747Y371571D02*
X133825D01*
X131286D01*
Y356336D01*
X128747D01*
X133825D01*
X265912D02*
Y371571D01*
X270990Y366493D01*
X276069Y371571D01*
Y356336D01*
X281147Y371571D02*
Y356336D01*
X288765D01*
X291304Y358875D01*
Y369032D01*
X288765Y371571D01*
X281147D01*
X472922D02*
Y361414D01*
X478000Y356336D01*
X483079Y361414D01*
Y371571D01*
X488157Y363954D02*
X498314D01*
X493235Y369032D02*
Y358875D01*
X583000Y372078D02*
X580461Y374618D01*
X575382D01*
X572843Y372078D01*
Y361922D01*
X575382Y359383D01*
X580461D01*
X583000Y361922D01*
X588078Y359383D02*
X593157D01*
X590618D01*
Y374618D01*
X588078Y372078D01*
M02*
